<?xml version="1.0" standalone="no"?>
<!DOCTYPE svg PUBLIC "-//W3C//DTD SVG 20010904//EN"
 "http://www.w3.org/TR/2001/REC-SVG-20010904/DTD/svg10.dtd">
<svg version="1.0" xmlns="http://www.w3.org/2000/svg"
 width="1280.000000pt" height="1167.000000pt" viewBox="0 0 1280.000000 1167.000000"
 preserveAspectRatio="xMidYMid meet">
<metadata>
Created by potrace 1.15, written by Peter Selinger 2001-2017
</metadata>
<g transform="translate(0.000000,1167.000000) scale(0.100000,-0.100000)"
fill="#000000" stroke="none">
<path d="M10701 11659 c-18 -6 -50 -21 -70 -35 -30 -19 -58 -26 -143 -34 -120
-12 -177 -32 -253 -92 -63 -50 -144 -145 -176 -206 -13 -26 -29 -54 -35 -62
-6 -8 -18 -35 -28 -60 -28 -68 -33 -337 -11 -495 9 -66 21 -151 27 -190 15
-107 7 -175 -29 -245 -18 -33 -28 -60 -23 -60 4 0 32 19 62 42 64 52 200 154
247 186 19 13 41 31 50 41 9 10 40 37 69 61 70 56 164 175 290 367 41 64 51
73 77 72 17 0 49 -14 75 -33 l45 -33 7 -88 c13 -168 71 -423 119 -520 16 -33
43 -75 59 -94 35 -40 39 -82 13 -151 -14 -37 -17 -81 -17 -255 1 -267 16 -424
45 -490 12 -27 42 -69 67 -91 38 -35 44 -46 38 -67 -3 -14 -14 -28 -24 -31
-10 -4 -36 -24 -57 -46 -40 -41 -57 -83 -76 -190 -6 -30 -16 -80 -22 -110 -7
-32 -12 -135 -12 -241 l0 -186 41 -45 c61 -66 69 -84 49 -114 -9 -14 -25 -24
-39 -24 -87 0 -130 -63 -192 -285 -45 -162 -84 -334 -84 -369 0 -10 14 -41 30
-68 17 -26 30 -54 30 -62 0 -16 -32 -46 -49 -46 -6 0 -35 -12 -64 -26 -36 -19
-99 -74 -202 -178 -146 -147 -255 -264 -255 -273 0 -6 -66 -94 -85 -114 -8 -9
-15 -19 -15 -23 0 -4 -22 -37 -50 -74 -53 -71 -61 -102 -34 -141 22 -30 5 -68
-33 -77 -40 -10 -119 -71 -182 -140 -100 -110 -111 -123 -111 -134 0 -5 -4
-10 -9 -10 -7 0 -106 -190 -126 -240 -3 -8 -16 -35 -30 -59 -29 -51 -30 -68
-11 -106 24 -46 8 -66 -70 -87 -225 -63 -363 -137 -487 -262 l-72 -73 -74 -7
c-68 -6 -76 -5 -98 16 -12 12 -23 27 -23 34 0 6 -25 46 -55 89 -30 42 -55 79
-55 83 0 4 -9 15 -20 25 -11 9 -20 24 -20 32 0 8 -16 33 -36 55 l-36 40 -162
0 c-159 0 -164 -1 -306 -41 -99 -28 -156 -50 -180 -69 -19 -15 -46 -30 -60
-34 -102 -28 -191 -60 -223 -79 -55 -33 -239 -218 -306 -306 -97 -129 -131
-176 -139 -191 -4 -8 -25 -41 -47 -74 -22 -32 -43 -64 -46 -70 -3 -6 -11 -20
-17 -31 -7 -11 -25 -45 -42 -75 -63 -113 -62 -113 -126 -132 -64 -19 -169 -24
-179 -8 -15 24 -37 211 -46 389 -5 106 -15 216 -23 245 -8 28 -17 96 -21 151
-7 107 -10 114 -69 157 -45 32 -114 38 -162 13 -16 -8 -40 -15 -54 -15 -19 0
-65 -41 -193 -172 -201 -207 -220 -238 -291 -488 -8 -30 -20 -84 -26 -120 -28
-158 -41 -242 -54 -340 -25 -188 -43 -232 -108 -266 -41 -21 -74 -17 -110 15
-29 26 -33 36 -39 107 -4 44 -8 109 -8 146 -1 39 -9 89 -20 120 -13 37 -21 92
-25 178 -3 69 -10 141 -15 160 -20 66 -43 195 -51 282 -9 97 -27 132 -84 167
-41 26 -57 26 -104 2 -85 -44 -123 -120 -137 -271 -4 -41 -12 -81 -19 -89 -13
-17 -24 -106 -32 -280 -8 -169 15 -320 94 -616 13 -49 28 -106 33 -125 25 -99
-4 -190 -61 -190 -24 0 -35 8 -57 43 -28 43 -51 88 -86 167 -10 25 -24 54 -29
64 -18 35 -98 274 -98 293 0 8 -7 29 -14 46 -8 18 -20 57 -25 87 -6 30 -20 87
-32 125 -11 39 -25 88 -31 110 -37 140 -223 363 -354 425 -88 41 -123 39 -236
-13 -69 -33 -118 -134 -118 -248 0 -25 -7 -68 -15 -95 -21 -71 -39 -215 -40
-324 -2 -176 -19 -223 -89 -241 -24 -6 -58 -24 -76 -40 -18 -17 -43 -37 -56
-46 -26 -17 -23 -18 -95 38 -139 108 -513 124 -839 38 -152 -41 -306 -109
-372 -164 -20 -17 -42 -25 -69 -25 -35 0 -42 4 -66 43 -15 23 -36 52 -47 65
-30 34 -196 110 -265 121 -34 5 -67 13 -74 18 -29 18 -195 36 -371 40 -169 4
-199 2 -280 -17 -126 -30 -283 -85 -360 -125 -81 -42 -217 -144 -265 -199 -15
-16 -33 -36 -42 -45 -9 -9 -33 -47 -54 -86 -21 -38 -41 -75 -46 -80 -27 -35
-75 -214 -83 -305 -7 -91 -34 -169 -76 -216 -36 -42 -102 -140 -115 -174 -10
-25 -31 -70 -89 -192 -31 -64 -56 -121 -56 -126 0 -5 -16 -49 -35 -96 -19 -48
-35 -98 -35 -112 0 -29 22 -75 45 -94 20 -17 59 2 79 39 133 254 134 255 189
248 36 -5 40 -3 85 53 26 32 69 101 95 152 26 51 56 102 65 114 21 25 154 104
176 104 8 0 17 4 20 9 3 5 30 21 61 35 49 25 58 34 85 92 43 89 47 89 210 39
83 -26 89 -26 320 -22 234 4 236 4 380 41 80 21 159 44 175 51 17 7 41 16 55
20 54 15 132 52 233 109 l47 27 373 9 c266 7 385 13 417 23 25 8 87 17 139 21
90 7 237 35 293 58 35 13 68 5 104 -26 54 -46 119 -91 167 -116 26 -14 47 -28
47 -32 0 -3 14 -9 31 -13 17 -4 42 -13 57 -21 15 -8 32 -14 38 -14 7 0 25 -7
40 -15 16 -8 38 -15 49 -15 11 0 52 -7 90 -15 39 -8 99 -15 135 -15 36 0 90
-3 120 -7 53 -6 58 -9 141 -95 68 -70 92 -88 114 -88 53 0 63 -20 58 -118 -3
-50 0 -99 6 -114 10 -26 12 -27 63 -21 37 4 79 22 147 60 53 30 103 61 112 69
24 21 92 18 123 -7 34 -27 33 -57 -3 -111 -40 -60 -75 -144 -67 -164 6 -15 26
-16 214 -11 165 5 221 10 277 26 93 27 142 49 186 82 41 32 108 59 162 66 45
6 66 -9 97 -70 29 -55 163 -181 227 -214 29 -15 81 -53 116 -84 45 -41 75 -59
103 -64 41 -8 84 -39 84 -62 0 -21 -44 -33 -118 -33 -37 0 -87 -6 -112 -14
-25 -7 -76 -17 -115 -21 -38 -4 -78 -11 -87 -16 -10 -5 -44 -14 -75 -20 -32
-6 -62 -14 -68 -18 -5 -4 -37 -17 -70 -30 -33 -12 -78 -31 -100 -41 -86 -41
-212 -104 -255 -127 -103 -57 -399 -206 -455 -229 -33 -14 -73 -31 -90 -38
-33 -15 -266 -107 -410 -163 -49 -19 -110 -43 -135 -53 -25 -10 -70 -28 -100
-40 -30 -12 -77 -32 -105 -45 -48 -22 -160 -74 -235 -109 -44 -21 -73 -38 -95
-56 -9 -8 -25 -19 -36 -25 -102 -57 -268 -185 -269 -207 0 -4 -13 -30 -30 -58
-16 -27 -26 -50 -22 -50 5 0 35 13 67 30 40 20 79 32 124 35 36 4 107 13 156
20 222 36 581 63 598 46 6 -6 20 -11 30 -11 11 0 58 -9 105 -21 82 -20 151
-19 177 1 6 4 46 15 90 23 70 13 108 13 300 1 220 -13 354 -27 384 -40 9 -3
52 -12 96 -20 206 -35 339 -67 495 -116 73 -24 75 -25 78 -59 2 -33 1 -35 -70
-69 -73 -36 -77 -39 -99 -99 -19 -50 -63 -96 -138 -144 -59 -38 -91 -53 -226
-104 -22 -8 -56 -22 -75 -30 -20 -9 -89 -19 -160 -24 -118 -8 -204 -23 -312
-55 -26 -8 -116 -19 -200 -24 -84 -5 -192 -15 -240 -21 -65 -9 -119 -9 -210
-1 -68 7 -157 14 -198 17 -41 4 -94 11 -118 16 -31 7 -58 5 -100 -5 -85 -22
-172 -29 -217 -17 -22 5 -51 13 -65 16 -22 6 -20 2 15 -29 36 -32 70 -51 165
-93 19 -9 46 -22 60 -28 44 -22 210 -75 253 -80 23 -4 65 -12 92 -20 78 -21
216 -45 262 -45 23 0 75 -6 116 -14 174 -34 656 -28 797 8 30 8 87 17 125 21
39 4 120 21 180 37 61 16 130 33 155 38 74 14 229 64 295 94 17 8 42 18 58 21
15 4 30 11 33 16 3 5 12 9 20 9 14 0 213 97 482 235 51 26 102 59 113 74 11
14 28 37 37 50 14 18 35 26 93 36 167 29 319 68 359 94 39 24 160 116 209 158
43 38 141 172 141 194 0 6 7 25 15 42 18 40 45 114 52 145 7 28 21 35 109 61
38 11 101 29 139 41 97 28 169 65 210 108 40 43 46 54 74 147 11 39 34 113 51
165 29 91 30 101 30 283 0 181 -1 190 -25 235 -14 26 -25 52 -25 58 0 14 -67
80 -125 124 -93 69 -105 83 -105 117 0 26 5 34 23 37 12 3 45 10 72 16 28 7
73 16 100 22 28 6 55 12 62 14 7 2 24 21 37 43 19 30 35 42 63 49 21 5 61 15
88 22 28 7 79 18 115 25 36 7 90 22 120 35 30 12 70 26 89 32 19 5 44 16 55
23 12 7 34 16 51 20 16 3 73 36 127 72 l98 65 97 -5 c111 -6 250 -30 266 -46
17 -17 102 -14 117 4 7 8 23 15 35 15 35 0 48 -23 41 -75 -3 -25 -9 -66 -12
-91 -10 -77 32 -205 110 -338 24 -40 59 -107 80 -149 37 -77 57 -97 95 -97 26
0 46 -39 55 -105 8 -53 69 -191 117 -263 16 -24 29 -45 29 -48 0 -2 25 -42 55
-88 30 -46 55 -87 55 -91 0 -5 7 -15 15 -24 9 -9 33 -41 55 -71 113 -159 188
-230 244 -230 30 0 66 -24 66 -45 0 -11 57 -62 105 -93 133 -87 204 -113 325
-118 48 -1 92 -10 123 -23 53 -23 60 -16 20 21 -45 40 -86 65 -121 71 -21 4
-51 25 -85 60 -37 37 -80 67 -148 100 -53 26 -99 47 -103 47 -5 0 -21 9 -37
21 -22 15 -29 28 -29 53 0 17 -7 56 -15 86 -9 30 -20 69 -24 85 -10 36 -53
130 -133 290 -124 250 -189 354 -272 435 -53 52 -56 57 -56 105 0 35 -9 66
-29 105 -16 30 -41 80 -56 110 -14 30 -30 62 -35 70 -5 8 -23 42 -41 75 -17
33 -35 65 -39 70 -13 16 -90 169 -90 179 0 18 -90 133 -129 164 -23 18 -48 50
-57 70 -18 43 -29 152 -17 169 6 8 89 13 298 15 297 3 409 -2 427 -20 6 -6 14
-41 18 -79 15 -116 50 -216 110 -308 11 -16 24 -40 29 -52 5 -11 14 -24 19
-27 6 -3 13 -18 17 -33 9 -37 43 -73 70 -73 39 0 55 -22 65 -88 8 -61 35 -130
71 -182 9 -14 34 -52 55 -85 21 -33 41 -62 44 -65 3 -3 24 -33 47 -67 52 -77
56 -82 140 -171 69 -71 70 -72 121 -72 29 0 52 -4 52 -10 0 -5 26 -21 58 -35
31 -15 65 -30 74 -35 19 -11 75 -26 154 -42 44 -9 61 -8 119 11 38 11 80 21
94 21 25 1 24 2 -9 20 -19 11 -47 19 -61 20 -15 0 -37 8 -50 18 -45 34 -159
72 -259 86 -53 8 -70 21 -70 52 0 13 -9 41 -20 61 -11 21 -20 45 -20 54 0 27
-82 208 -140 309 -21 36 -54 96 -74 134 -43 80 -111 165 -143 177 -17 6 -23
19 -29 66 -5 40 -17 74 -40 111 -19 29 -34 58 -34 64 0 6 -6 19 -14 27 -7 9
-24 36 -37 61 -13 25 -29 52 -35 60 -12 15 -62 112 -106 204 -12 27 -51 78
-86 112 -76 75 -114 143 -110 193 l3 36 120 0 c127 1 271 16 318 34 16 6 82
11 148 11 l119 0 11 -28 c6 -15 17 -54 24 -87 20 -86 34 -112 175 -325 20 -31
39 -63 43 -73 4 -10 17 -17 32 -17 43 0 64 -17 70 -58 3 -20 8 -46 10 -58 3
-11 34 -65 70 -118 36 -54 65 -102 65 -107 0 -5 4 -9 9 -9 5 0 33 -33 63 -72
123 -163 221 -253 273 -250 20 2 45 -6 66 -21 40 -27 74 -40 184 -71 75 -21
85 -22 130 -9 28 8 61 17 73 20 21 5 16 10 -40 40 -71 38 -162 73 -193 73 -30
0 -87 18 -109 35 -10 8 -22 35 -27 60 -5 25 -24 76 -42 113 -53 105 -108 205
-123 223 -8 8 -14 19 -14 22 0 4 -16 29 -35 56 -19 26 -35 51 -35 55 0 12
-108 145 -143 176 -30 26 -37 39 -37 70 0 21 -7 43 -15 50 -8 7 -15 17 -15 23
0 6 -15 33 -34 61 -18 28 -59 92 -91 141 -134 209 -172 260 -231 313 -42 37
-68 70 -79 99 -9 24 -31 55 -50 68 -36 28 -139 60 -225 70 -75 9 -210 34 -221
41 -17 10 -9 43 13 58 13 9 44 16 73 16 60 0 175 18 190 29 5 5 26 12 45 16
19 4 59 21 89 36 51 27 55 28 72 13 10 -9 21 -26 25 -38 18 -60 61 -157 91
-203 18 -29 33 -56 33 -60 0 -10 35 -42 77 -71 29 -21 42 -47 57 -112 7 -33
103 -177 173 -259 72 -85 110 -114 185 -141 35 -13 67 -27 73 -32 18 -16 128
-9 157 10 l28 18 -29 22 c-16 11 -55 28 -87 38 -76 21 -90 35 -97 92 -10 82
-145 336 -228 428 -27 30 -40 57 -50 100 -21 98 -130 289 -223 392 -33 37 -72
88 -85 114 -13 26 -34 54 -46 62 -66 43 -233 58 -359 32 -107 -23 -137 5 -122
109 8 48 16 57 66 74 94 30 304 306 364 476 73 208 78 250 38 332 -26 54 -28
63 -16 86 8 14 22 28 33 32 28 9 72 110 84 195 19 130 14 352 -10 455 -49 211
-51 214 -119 288 -60 65 -63 70 -51 94 7 13 22 30 33 36 76 46 83 53 89 89 4
21 10 40 15 43 4 3 11 22 14 42 6 36 21 101 51 223 28 113 47 247 43 305 l-3
60 -54 17 c-67 22 -81 33 -81 69 0 31 23 57 82 95 61 39 75 76 88 234 6 63 15
155 21 205 7 51 9 140 5 207 -6 130 -25 181 -77 219 -36 26 -37 58 -3 90 14
13 37 45 50 71 22 43 24 59 24 180 -1 212 -37 520 -75 645 -18 56 -32 73 -79
88 -38 12 -47 53 -18 82 42 40 54 143 28 231 -8 26 -22 76 -31 112 -9 36 -25
88 -36 115 -10 28 -19 58 -19 66 0 36 -102 219 -136 245 -37 29 -42 52 -18 89
18 28 13 62 -18 127 -19 40 -68 111 -92 133 -6 6 -32 36 -57 67 -26 32 -57 66
-70 77 -13 11 -40 34 -60 50 -20 17 -63 43 -95 57 -33 14 -73 32 -90 40 -42
19 -132 25 -173 13z m-2186 -6344 c19 -18 25 -35 25 -69 0 -25 -6 -50 -12 -55
-7 -6 -56 -44 -108 -84 -52 -40 -111 -88 -130 -106 -32 -29 -39 -32 -85 -27
-27 2 -70 8 -95 13 -32 6 -69 4 -130 -9 -47 -10 -94 -18 -105 -18 -30 0 -165
-74 -165 -90 0 -16 -64 -39 -82 -29 -28 15 -21 49 25 116 39 56 157 194 200
232 9 8 17 21 17 28 0 33 43 41 255 46 l210 5 70 36 c39 19 74 35 78 35 4 1
19 -10 32 -24z m-2083 -246 c9 -11 19 -46 23 -81 3 -35 12 -83 19 -108 8 -25
21 -97 30 -160 10 -63 22 -134 27 -158 5 -23 7 -53 3 -66 -10 -41 -121 -106
-181 -106 -16 0 -60 -9 -98 -20 -75 -21 -122 -25 -144 -11 -22 14 -16 81 18
187 17 55 38 124 47 154 9 30 22 73 30 95 7 22 25 90 39 150 15 61 33 116 40
124 16 17 73 30 105 24 14 -3 32 -14 42 -24z m-2074 -455 c12 -4 24 -16 26
-28 3 -11 14 -77 26 -146 26 -146 60 -284 89 -357 12 -29 29 -74 40 -100 10
-27 33 -79 51 -118 18 -38 41 -89 52 -112 24 -51 21 -70 -13 -95 -39 -29 -59
-17 -134 83 -61 81 -234 251 -304 299 l-63 42 7 97 c4 63 15 118 30 161 14 36
29 104 34 152 14 119 19 128 84 128 29 0 62 -3 75 -6z"/>
</g>
</svg>
